<svg width="128" height="128" viewBox="0 0 128 128" fill="none" xmlns="http://www.w3.org/2000/svg">
<path d="M128 84.9947H127.888L108.16 39.6287C110.037 40.3067 111.626 40.8917 112.857 41.354L115.168 35.2257C108.602 32.7562 92.5897 27.0672 75.0685 21.9122C75.0685 19.208 73.9605 16.746 72.188 14.9735C70.4193 13.197 67.9497 12.0987 65.2452 12.0987C62.541 12.0987 60.0658 13.1972 58.2988 14.9735C57.7155 15.553 57.2118 16.2082 56.7933 16.9242C39.4403 12.5377 23.2255 9.33924 16.4363 8.14224L15.2983 14.5907C16.7355 14.8445 18.6275 15.1947 20.8813 15.6305L0.1135 63.3862H0C0.015 63.4355 0.03225 63.4847 0.04725 63.534L0.0055 63.6305L0.091 63.6682C3.29525 73.823 12.7795 81.1877 23.9907 81.1877C35.2038 81.1877 44.6882 73.8227 47.8905 63.6682L47.9777 63.6305L47.936 63.534C47.9513 63.4847 47.9683 63.4355 47.9835 63.3862H47.8698L27.693 16.9902C35.4368 18.583 45.3128 20.7647 55.528 23.3515C55.8423 25.4877 56.8442 27.4137 58.2985 28.8585C59.1545 29.7202 60.181 30.419 61.3155 30.9152V100.008C56.882 100.008 53.4297 100.008 53.4297 100.008C53.4297 100.008 51.5397 111.826 43.0327 113.712V119.857H87.4557V113.712C78.9508 111.826 77.0587 100.008 77.0587 100.008C77.0587 100.008 73.6065 100.008 69.173 100.008V30.9152C70.3055 30.419 71.33 29.7202 72.188 28.8585C72.4288 28.616 72.6652 28.3625 72.881 28.0935C83.314 31.1595 93.2677 34.4357 100.962 37.0927L80.1305 84.9947H80.017C80.032 85.0457 80.049 85.0932 80.0663 85.1425L80.0228 85.239L80.1077 85.2767C83.3122 95.4312 92.7962 102.796 104.009 102.796C115.221 102.796 124.705 95.433 127.909 85.2787L127.994 85.239L127.952 85.1425C127.968 85.0932 127.987 85.0457 128 84.9947ZM43.5858 63.3862H4.3975L23.9925 18.3292L43.5858 63.3862ZM68.9457 25.6202C68.5592 26.0047 68.1143 26.338 67.6217 26.5805C66.9155 26.9535 66.1105 27.1582 65.245 27.1582C63.7925 27.1582 62.4953 26.5747 61.539 25.6202C61.272 25.3437 61.0275 25.0502 60.8192 24.7227C60.3022 23.916 60.007 22.9615 60.007 21.92C60.007 20.4655 60.5903 19.1685 61.539 18.212C61.56 18.193 61.5788 18.1742 61.5998 18.1607C62.5485 17.2422 63.8172 16.682 65.2452 16.682C66.6997 16.682 67.997 17.265 68.946 18.212C69.5802 18.8482 70.0595 19.64 70.302 20.53C70.4193 20.9695 70.4855 21.4352 70.4855 21.92C70.4852 23.3742 69.902 24.6695 68.9457 25.6202ZM84.4143 84.9947L104.009 39.9372L123.603 84.9947H84.4143Z" fill="#84888E"/>
</svg>
