<svg width="128" height="128" viewBox="0 0 128 128" fill="none" xmlns="http://www.w3.org/2000/svg">
<path d="M120.317 57.9994C120.317 53.2941 118.194 48.8845 114.575 45.9495C114.733 45.1981 114.811 44.4762 114.811 43.7658C114.811 37.9047 110.477 33.0368 104.846 32.1984C104.975 31.5251 105.037 30.8647 105.037 30.2067C105.037 23.9667 100.119 18.8685 93.9584 18.5447C93.8573 18.528 93.7549 18.5139 93.6487 18.5139C93.5975 18.5139 93.5476 18.5203 93.4951 18.5216C93.4439 18.5203 93.394 18.5139 93.3415 18.5139C92.7552 18.5139 92.1652 18.5664 91.5418 18.6752C90.4589 12.9344 85.458 8.65921 79.4624 8.65921C72.6644 8.65921 67.1335 14.1901 67.1335 20.9895V105.365C67.1335 113.97 74.1338 120.969 82.738 120.969C88.4468 120.969 93.6282 117.88 96.3648 112.974C96.978 113.107 97.5668 113.189 98.1581 113.228C101.874 113.464 105.493 112.247 108.303 109.78C111.114 107.314 112.796 103.9 113.039 100.168C113.141 98.6125 112.966 97.0522 112.524 95.5111C117.382 92.0666 120.238 86.6125 120.238 80.6362C120.238 76.3034 118.678 72.1434 115.829 68.8295C118.696 65.9264 120.317 62.0429 120.317 57.9994ZM116.401 80.6387C116.401 85.0983 114.376 89.1891 110.903 91.9271C108.333 87.8362 103.773 85.2237 98.8365 85.2237C97.7767 85.2237 96.9165 86.0839 96.9165 87.1437C96.9165 88.2035 97.7767 89.0637 98.8365 89.0637C103.113 89.0637 107.008 91.7427 108.541 95.7299C109.066 97.1226 109.299 98.5319 109.208 99.9207C109.032 102.629 107.812 105.106 105.772 106.895C103.731 108.686 101.111 109.576 98.409 109.396C97.6487 109.347 96.8628 109.183 95.9348 108.882C94.9876 108.572 93.9623 109.041 93.5719 109.957C91.7223 114.314 87.4688 117.13 82.7367 117.13C76.2496 117.13 70.9722 111.853 70.9722 105.366V20.9907C70.9722 16.3098 74.7802 12.5005 79.4612 12.5005C83.8106 12.5005 87.3895 15.7799 87.8554 20.0627C84.3341 22.08 81.952 25.8675 81.952 30.208C81.952 31.2691 82.8122 32.128 83.872 32.128C84.9319 32.128 85.792 31.2691 85.792 30.208C85.792 25.929 89.234 22.4448 93.4925 22.3616C97.7511 22.4448 101.193 25.929 101.193 30.2067C101.193 31.0029 101.043 31.8272 100.733 32.7296C100.661 32.9421 100.626 33.1648 100.63 33.3888C100.631 33.4413 100.634 33.4899 100.639 33.536C100.631 33.5629 100.626 33.5808 100.626 33.5808C100.475 34.176 100.618 34.8083 101.011 35.2807C101.404 35.753 101.99 36.009 102.613 35.9693C102.746 35.9603 102.879 35.9437 103.114 35.9104C107.445 35.9104 110.968 39.4343 110.968 43.7645C110.968 44.4967 110.837 45.248 110.556 46.1312C110.296 46.944 110.605 47.8311 111.313 48.3072C114.428 50.4051 116.316 53.8483 116.451 57.577C116.451 57.5821 116.449 57.5872 116.449 57.5923C116.449 64.0307 111.212 69.2698 104.773 69.2698C98.3348 69.2698 93.0957 64.0307 93.0957 57.5923C93.0957 56.5312 92.2356 55.6723 91.1757 55.6723C90.1159 55.6723 89.2557 56.5312 89.2557 57.5923C89.2557 66.1491 96.2164 73.1098 104.773 73.1098C107.625 73.1098 110.29 72.3226 112.589 70.9747C115.046 73.6499 116.401 77.0714 116.401 80.6387Z" fill="#84888E"/>
<path d="M48.8691 8.66049C42.8736 8.66049 37.8739 12.9357 36.7923 18.6765C36.1677 18.5677 35.5776 18.5152 34.9914 18.5152C34.9402 18.5152 34.8903 18.5216 34.8378 18.5229C34.7866 18.5216 34.7367 18.5152 34.6842 18.5152C34.5779 18.5152 34.4755 18.5293 34.3744 18.5459C28.2138 18.8698 23.2973 23.968 23.2973 30.208C23.2973 30.8659 23.36 31.5264 23.488 32.1997C17.8573 33.0381 13.5232 37.9059 13.5232 43.7671C13.5232 44.4762 13.6013 45.1981 13.7587 45.9507C10.1402 48.8858 8.01666 53.2954 8.01666 58.0007C8.01666 62.0442 9.63714 65.9277 12.5031 68.8333C9.6525 72.1472 8.09218 76.3072 8.09218 80.64C8.09218 86.6163 10.9479 92.0692 15.8067 95.5149C15.3626 97.056 15.1898 98.6163 15.2922 100.173C15.5354 103.904 17.216 107.318 20.0269 109.784C22.8378 112.252 26.4461 113.469 30.1722 113.231C30.7546 113.193 31.3485 113.109 31.9642 112.977C34.7008 117.884 39.8823 120.973 45.5911 120.973C54.1952 120.973 61.1955 113.973 61.1955 105.368V20.9907C61.1981 14.1914 55.6672 8.66049 48.8691 8.66049ZM57.3581 105.366C57.3581 111.853 52.0807 117.13 45.5936 117.13C40.8615 117.13 36.608 114.314 34.7597 109.957C34.4512 109.231 33.7447 108.787 32.992 108.787C32.7949 108.787 32.5939 108.817 32.3968 108.882C31.4701 109.183 30.6842 109.347 29.9226 109.397C27.2103 109.574 24.6003 108.685 22.5613 106.895C20.521 105.106 19.3011 102.629 19.1245 99.9207C19.0272 98.4359 19.2845 96.9306 19.8899 95.4471C19.8989 95.4253 19.8963 95.401 19.904 95.3792C21.6218 91.4675 25.312 89.0394 29.6282 89.0394C30.6893 89.0394 31.5482 88.1792 31.5482 87.1194C31.5482 86.0595 30.6893 85.1994 29.6282 85.1994C24.5875 85.1994 20.0269 87.7683 17.4067 91.9053C13.9495 89.1674 11.9322 85.0867 11.9322 80.6387C11.9322 77.0714 13.289 73.6499 15.744 70.976C18.0429 72.3239 20.7091 73.1111 23.561 73.1111C32.1178 73.1111 39.0784 66.1504 39.0784 57.5936C39.0784 56.5325 38.2195 55.6736 37.1584 55.6736C36.0973 55.6736 35.2384 56.5325 35.2384 57.5936C35.2384 64.032 30.0007 69.2711 23.561 69.2711C17.1213 69.2711 11.8835 64.032 11.8835 57.5936C11.8835 57.5911 11.8823 57.5885 11.8823 57.5859C12.0141 53.8547 13.9021 50.409 17.0189 48.3085C17.7267 47.8323 18.0339 46.9466 17.7754 46.1338C17.4938 45.2493 17.3632 44.4979 17.3632 43.7658C17.3632 39.4445 20.8717 35.9258 25.2928 35.9258C25.3018 35.9258 25.312 35.9258 25.321 35.9258C25.4528 35.9437 25.5847 35.9603 25.7191 35.9693C26.3399 36.0077 26.9325 35.7504 27.3242 35.2755C27.7171 34.7994 27.8579 34.1645 27.7005 33.568C27.7005 33.5667 27.6967 33.5501 27.6903 33.5283C27.6941 33.4835 27.6979 33.4426 27.6992 33.4067C27.7056 33.1763 27.6711 32.9472 27.5955 32.7296C27.2858 31.8247 27.136 30.9991 27.136 30.2055C27.136 25.9277 30.5767 22.4423 34.8365 22.3603C39.0963 22.4435 42.537 25.9277 42.537 30.2067C42.537 31.2679 43.3959 32.1267 44.457 32.1267C45.5181 32.1267 46.377 31.2679 46.377 30.2067C46.377 25.8663 43.9949 22.0787 40.4736 20.0615C40.9395 15.7786 44.5184 12.4992 48.8679 12.4992C53.5488 12.4992 57.3568 16.3085 57.3568 20.9895L57.3581 105.366Z" fill="#84888E"/>
</svg>
