<svg width="128" height="128" viewBox="0 0 128 128" fill="none" xmlns="http://www.w3.org/2000/svg">
<path d="M60.3464 106.833C51.5091 106.833 42.8989 103.981 35.7496 98.6845C28.6003 93.3885 23.2789 85.9208 20.5481 77.3512C17.8173 68.7821 17.8173 59.5512 20.5481 50.9819C23.2789 42.4126 28.6003 34.9447 35.7496 29.6486C42.8989 24.3525 51.5091 21.5 60.3464 21.5C69.1832 21.5 77.7933 24.3525 84.9427 29.6486C92.092 34.9447 97.4136 42.4126 100.144 50.982C102.875 59.5512 102.875 68.7821 100.144 77.3512M94.0557 68.9075L99.8675 78.3891L109.167 71.2776M69.6451 49.9444C69.6451 55.1811 65.4819 59.4259 60.3464 59.4259C55.2104 59.4259 51.0472 55.1811 51.0472 49.9444C51.0472 44.7079 55.2104 40.463 60.3464 40.463C65.4819 40.463 69.6451 44.7079 69.6451 49.9444ZM52.0317 68.9075H68.6605C70.1565 68.9075 70.9043 68.9075 71.5731 69.0168C73.8883 69.3949 75.8904 70.7235 77.012 72.6264C77.3357 73.1763 77.5725 73.8296 78.0456 75.1363C78.6136 76.7064 78.8979 77.4915 78.9363 78.1245C79.0717 80.3581 77.4931 82.3752 75.1491 82.9629C74.4845 83.1299 73.5864 83.1299 71.7891 83.1299H48.9034C47.1062 83.1299 46.2076 83.1299 45.5432 82.9629C43.1991 82.3752 41.6204 80.3581 41.756 78.1245C41.7944 77.4915 42.0786 76.7064 42.6469 75.1363C43.1199 73.8296 43.3563 73.1763 43.6804 72.6264C44.802 70.7235 46.804 69.3949 49.1192 69.0168C49.7881 68.9075 50.5357 68.9075 52.0317 68.9075Z" stroke="#84888E" stroke-width="2.5" stroke-linecap="round" stroke-linejoin="round"/>
</svg>
